<svg xmlns="http://www.w3.org/2000/svg" viewBox="0 0 900 360" role="img" aria-label="Market line artwork">
  <defs>
    <linearGradient id="fill" x1="0" x2="1" y1="0" y2="1">
      <stop offset="0" stop-color="#1f8a5b"/>
      <stop offset="0.52" stop-color="#315d8f"/>
      <stop offset="1" stop-color="#c47c17"/>
    </linearGradient>
  </defs>
  <path d="M0 258 C94 216 139 306 222 226 C306 146 356 232 444 163 C528 97 582 126 658 86 C742 42 819 68 900 22 L900 360 L0 360 Z" fill="url(#fill)"/>
  <path d="M0 258 C94 216 139 306 222 226 C306 146 356 232 444 163 C528 97 582 126 658 86 C742 42 819 68 900 22" fill="none" stroke="#10201d" stroke-width="9" stroke-linecap="round"/>
  <g fill="#10201d">
    <circle cx="222" cy="226" r="13"/>
    <circle cx="444" cy="163" r="13"/>
    <circle cx="658" cy="86" r="13"/>
    <circle cx="900" cy="22" r="13"/>
  </g>
</svg>
